<svg width="667" height="351" viewBox="0 0 667 351" fill="none" xmlns="http://www.w3.org/2000/svg">
<g opacity="0.4">
<g opacity="0.4">
<path opacity="0.4" d="M238.986 249.414L243.431 256.085C245.691 259.463 250.129 260.46 253.367 258.303L267.87 248.643L262.7 241.16C262.696 241.147 248.692 255.683 238.986 249.414Z" fill="#92B455"/>
</g>
<g opacity="0.4">
<path opacity="0.4" d="M262.673 239.481L265.138 243.293C269.384 249.858 277.856 251.718 284.053 247.451L315.039 226.103L305.173 210.828L262.673 239.481Z" fill="#92B455"/>
</g>
<g opacity="0.4">
<path opacity="0.4" d="M223.908 250.807L233.296 244.554L240.867 255.907L231.479 262.16C228.41 264.207 224.268 263.384 222.221 260.319L222.049 260.061C220.014 256.993 220.84 252.854 223.908 250.807Z" fill="#92B455"/>
</g>
<g opacity="0.4">
<path opacity="0.4" d="M479.022 106.745L466.01 115.242L459.629 105.477L472.641 96.9807C475.347 95.2125 478.959 95.9751 480.727 98.6775C482.489 101.355 481.728 104.977 479.022 106.745Z" fill="#92B455"/>
</g>
<g opacity="0.4">
<path opacity="0.4" d="M466.434 115.198L446.669 128.618L452.5 142.872L467.52 132.103C471.267 129.42 472.401 122.554 470.037 116.792C469.342 115.076 467.689 114.345 466.434 115.198Z" fill="#92B455"/>
</g>
<g opacity="0.4">
<path opacity="0.4" d="M437.918 138.342L443.969 147.599C445.481 149.92 448.646 150.535 451.026 148.983L451.106 148.936C453.485 147.384 454.186 144.239 452.678 141.93L446.673 132.753" fill="#92B455"/>
</g>
<g opacity="0.4">
<path opacity="0.4" d="M448.216 146.893L406.727 174.308C404.416 175.817 401.607 175.61 400.465 173.851L396.727 168.129C395.574 166.374 396.52 163.718 398.832 162.21L437.688 136.847" fill="#92B455"/>
</g>
</g>
<path d="M411.291 136.716L389.918 150.666L392.451 154.541L413.823 140.59L411.291 136.716Z" fill="#FDC345"/>
<path d="M392.411 154.63L389.808 150.642L389.863 150.601L411.288 136.618L413.891 140.606L413.835 140.647L392.411 154.63ZM389.991 150.687L392.459 154.459L413.726 140.583L411.259 136.81L389.991 150.687Z" fill="#EFC42C"/>
<path d="M242.028 226.67C242.558 226.322 243.28 226.464 243.628 226.993L254.578 243.397C254.926 243.925 254.784 244.647 254.254 244.995C253.725 245.343 253.002 245.201 252.654 244.672L241.705 228.269C241.357 227.74 241.499 227.018 242.028 226.67Z" fill="#0085E5"/>
<path d="M237.218 229.88C237.747 229.532 238.47 229.674 238.818 230.203L249.767 246.606C250.115 247.135 249.973 247.857 249.443 248.205C248.914 248.553 248.191 248.411 247.843 247.882L236.894 231.479C236.546 230.95 236.688 230.228 237.218 229.88Z" fill="#0085E5"/>
<path d="M443.127 100.918C443.657 100.57 444.379 100.712 444.73 101.253L455.569 117.737C455.917 118.266 455.775 118.988 455.233 119.339C454.704 119.687 453.981 119.545 453.63 119.004L442.791 102.519C442.44 101.978 442.598 101.265 443.127 100.918Z" fill="#0085E5"/>
<path d="M438.291 104.081C438.821 103.733 439.543 103.875 439.894 104.416L450.733 120.901C451.081 121.429 450.939 122.151 450.397 122.502C449.868 122.85 449.145 122.708 448.794 122.167L437.955 105.682C437.607 105.154 437.762 104.429 438.291 104.081Z" fill="#0085E5"/>
<path d="M391.979 156.677L385.269 146.406L409.242 130.761L415.953 141.033L391.979 156.677ZM389.551 147.311L392.875 152.402L411.661 140.143L408.338 135.052L389.551 147.311Z" fill="#0085E5"/>
<path d="M385.332 128.899C384.887 129.014 384.406 128.836 384.145 128.443C383.816 127.935 383.959 127.266 384.464 126.925L402.721 115.014C403.229 114.685 403.899 114.827 404.24 115.331C404.582 115.835 404.427 116.508 403.922 116.849L385.665 128.76C385.56 128.814 385.455 128.867 385.332 128.899Z" fill="#0085E5"/>
<path d="M407.302 114.63C406.857 114.745 406.363 114.57 406.097 114.152C405.78 113.642 405.923 112.972 406.431 112.643L409.263 110.855C409.774 110.538 410.444 110.681 410.773 111.188C411.09 111.699 410.947 112.368 410.439 112.697L407.607 114.485C407.505 114.551 407.413 114.601 407.302 114.63Z" fill="#0085E5"/>
<path d="M252.822 212.414C252.266 212.559 251.66 212.307 251.377 211.775C250.531 210.19 250.594 208.448 251.542 206.714C252.198 205.53 253.042 204.771 253.141 204.693L253.205 204.637L253.273 204.593L272.972 191.584C273.557 191.195 274.351 191.358 274.74 191.942C275.128 192.526 274.965 193.32 274.38 193.708L254.757 206.658C254.42 206.982 252.667 208.767 253.624 210.574C253.957 211.198 253.722 211.97 253.097 212.304C253.004 212.354 252.921 212.389 252.822 212.414Z" fill="#0085E5"/>
<path d="M278.282 251.989C276.33 252.495 274.263 252.557 272.22 252.152C268.661 251.441 265.598 249.39 263.592 246.381L244.448 217.693C240.303 211.471 241.981 203.042 248.211 198.898L276.204 180.249L310.395 231.482L282.402 250.131C281.134 250.987 279.74 251.612 278.282 251.989ZM275.023 186.219L250.615 202.477C246.364 205.304 245.221 211.066 248.049 215.311L267.193 243.999C268.569 246.052 270.658 247.447 273.079 247.938C275.497 248.418 277.969 247.935 280.025 246.559L304.433 230.301L275.023 186.219Z" fill="#0085E5"/>
<path d="M251.854 261.316C250.483 261.672 249.013 261.697 247.571 261.373C245.149 260.829 243.047 259.385 241.646 257.285L226.019 233.876C223.11 229.52 224.169 223.688 228.383 220.87L242.886 211.21L245.278 214.791L230.775 224.451C228.537 225.94 228.009 229.093 229.605 231.485L245.232 254.894C246.009 256.062 247.183 256.877 248.513 257.178C249.816 257.472 251.111 257.229 252.179 256.517L266.682 246.857L269.073 250.439L254.57 260.099C253.715 260.663 252.805 261.07 251.854 261.316Z" fill="#0085E5"/>
<path d="M312.559 234.135C311.633 234.375 310.664 234.402 309.706 234.216C308.026 233.888 306.588 232.917 305.638 231.491L274.381 184.66C273.431 183.233 273.095 181.529 273.428 179.863C273.757 178.184 274.729 176.746 276.158 175.797L277.183 175.123C280.116 173.164 284.106 173.96 286.065 176.89L317.322 223.721C318.272 225.147 318.608 226.851 318.275 228.518C317.943 230.184 316.974 231.634 315.546 232.584L314.52 233.258C313.902 233.668 313.239 233.959 312.559 234.135ZM279.192 178.145L278.167 178.819C276.908 179.659 276.573 181.365 277.413 182.623L308.67 229.454C309.077 230.059 309.7 230.477 310.41 230.622C311.132 230.764 311.858 230.616 312.468 230.221L313.493 229.547C314.099 229.139 314.518 228.517 314.663 227.808C314.806 227.086 314.657 226.36 314.262 225.752L283.006 178.921C282.598 178.315 281.976 177.897 281.266 177.752C280.54 177.598 279.811 177.734 279.192 178.145Z" fill="#0085E5"/>
<path d="M227.13 260.693C223.412 261.656 219.326 260.239 217.082 256.87L216.888 256.578C214.06 252.333 215.203 246.571 219.466 243.74L231.574 235.676L242.051 251.372L229.942 259.437C229.053 260.023 228.106 260.44 227.13 260.693ZM220.366 245.074L221.268 246.421C218.504 248.27 217.75 252.022 219.587 254.785L219.781 255.077C221.245 257.266 223.899 258.198 226.321 257.57C226.951 257.407 227.58 257.138 228.152 256.753L237.561 250.481L230.665 240.152L221.256 246.424L220.366 245.074Z" fill="#0085E5"/>
<path d="M454.048 141.417L451.452 137.454L466.098 127.889C468.659 126.224 469.376 122.785 467.711 120.227L449.048 91.6649C448.239 90.4259 446.99 89.5774 445.542 89.281C444.091 88.9724 442.608 89.2515 441.371 90.0727L426.724 99.6381L424.128 95.6751L438.774 86.1098C441.074 84.605 443.815 84.0919 446.506 84.6586C449.198 85.2253 451.505 86.8004 453.01 89.097L471.673 117.659C474.774 122.4 473.435 128.779 468.688 131.879L454.048 141.417Z" fill="#0085E5"/>
<path d="M464.2 113.854L453.536 97.5344L468.093 88.0317C472.603 85.0847 478.655 86.3605 481.599 90.8522C484.547 95.3563 483.267 101.404 478.769 104.348L477.678 102.681L478.769 104.348L464.2 113.854ZM459.043 98.6882L465.355 108.339L476.575 101.018C479.234 99.2752 479.993 95.6937 478.25 93.0374C476.507 90.3811 472.922 89.6245 470.263 91.3676L459.043 98.6882Z" fill="#0085E5"/>
<path d="M404.2 177.782L370.725 126.561L412.93 99.0126L415.329 102.671L376.777 127.837L405.468 171.738L444.02 146.572L446.418 150.23L404.2 177.782Z" fill="#0085E5"/>
<path d="M361.804 154.859C359.778 155.384 357.543 154.594 356.339 152.746L356.035 152.285C355.298 151.172 355.054 149.826 355.322 148.518C355.602 147.208 356.366 146.088 357.493 145.348L377.825 132.083L383.61 140.922L363.278 154.187C362.823 154.516 362.323 154.724 361.804 154.859ZM376.876 136.662L359.321 148.127C358.936 148.372 358.679 148.754 358.584 149.201C358.489 149.647 358.579 150.097 358.824 150.482L359.128 150.943C359.648 151.73 360.709 151.956 361.497 151.435L379.052 139.97L376.876 136.662Z" fill="#0085E5"/>
<path d="M379.856 182.486C377.83 183.011 375.595 182.221 374.391 180.373L374.087 179.912C372.578 177.603 373.233 174.483 375.545 172.975L395.877 159.71L401.662 168.549L381.33 181.814C380.871 182.131 380.375 182.351 379.856 182.486ZM394.925 164.277L377.369 175.742C376.581 176.262 376.355 177.322 376.876 178.109L377.18 178.57C377.424 178.955 377.807 179.211 378.254 179.306C378.7 179.401 379.151 179.31 379.536 179.066L397.091 167.6L394.925 164.277Z" fill="#0085E5"/>
<path d="M449.963 151.392C447.146 152.122 444.054 151.027 442.389 148.469L413.112 103.68C412.09 102.128 411.752 100.266 412.127 98.4569C412.514 96.6445 413.572 95.0796 415.13 94.0699L415.21 94.0228C416.767 93.0132 418.628 92.6626 420.438 93.0362C422.252 93.422 423.818 94.478 424.828 96.0338L454.105 140.823C456.203 144.032 455.292 148.351 452.078 150.449L451.998 150.496C451.367 150.91 450.667 151.21 449.963 151.392ZM418.169 96.5879C417.823 96.6776 417.493 96.8289 417.176 97.0297L417.096 97.0768C416.351 97.5596 415.834 98.3126 415.652 99.1893C415.471 100.066 415.636 100.958 416.119 101.702L445.396 146.491C446.403 148.035 448.48 148.471 450.026 147.464L450.106 147.417C451.651 146.411 452.089 144.335 451.082 142.792L421.805 98.0027C421.322 97.2587 420.569 96.7428 419.691 96.5619C419.189 96.4551 418.663 96.4598 418.169 96.5879Z" fill="#0085E5"/>
<path d="M191.436 266.877C185.012 268.542 178.76 269.241 172.781 268.96C168.817 268.776 164.974 267.784 161.648 266.091C157.958 264.216 155.041 261.508 153.212 258.268C150.476 253.407 149.924 247.109 151.524 238.99C151.791 237.63 152.077 236.239 152.35 234.904C154.179 225.988 156.088 216.774 154.323 207.828C153.443 203.315 151.569 199.494 148.748 196.445C145.675 193.133 141.541 190.714 136.107 189.028C127.824 186.473 119.815 185.784 111.616 186.908C104.347 187.91 97.1403 190.318 89.5564 194.273C75.4241 201.65 62.7858 212.96 50.5809 223.908C47.5519 226.616 44.8166 229.287 42.1797 231.881C36.7183 237.208 31.5639 242.245 25.3347 246.086C24.4355 246.635 23.2571 246.361 22.7078 245.463C22.1586 244.565 22.4335 243.387 23.3326 242.838C29.1985 239.223 33.9753 234.561 39.5104 229.162C42.1812 226.546 44.9503 223.853 48.0407 221.076C60.43 209.976 73.2339 198.491 87.7977 190.896C104.627 182.121 120.796 180.314 137.246 185.387C143.35 187.268 148.035 190.032 151.571 193.856C154.882 197.423 157.08 201.884 158.102 207.098C160.001 216.813 158.029 226.399 156.114 235.693C155.841 237.028 155.552 238.407 155.294 239.751C153.888 246.938 154.299 252.389 156.571 256.423C159.967 262.457 167.271 264.897 172.984 265.167C180.071 265.503 187.617 264.35 195.404 261.739C202.466 259.382 209.503 255.859 215.743 251.554C216.618 250.959 217.808 251.177 218.403 252.05C218.999 252.923 218.78 254.112 217.906 254.708C211.373 259.206 203.997 262.896 196.608 265.365C194.879 265.919 193.153 266.432 191.436 266.877Z" fill="#0085E5"/>
<path d="M191.881 276.323C186.927 277.607 181.855 278.435 176.748 278.771C169.401 279.266 162.073 277.649 156.111 274.23C149.436 270.402 144.918 264.619 143.051 257.517C141.036 249.848 141.925 241.781 143.055 234.903C143.347 233.128 143.718 231.307 144.104 229.389C145.736 221.341 147.43 213.026 143.75 206.459C141.324 202.136 136.413 198.905 130.295 197.58C117.504 194.824 104.568 197.256 90.7611 205.023C78.5437 211.905 67.2142 222.059 57.2119 231.026L56.3117 231.826C46.8654 240.293 37.9444 248.296 28.6502 254.248C27.7574 254.822 26.5822 254.56 26.0082 253.668C25.4343 252.777 25.6968 251.602 26.5896 251.028C35.622 245.236 44.4263 237.343 53.7683 228.982L54.6684 228.182C64.809 219.087 76.3105 208.783 88.8977 201.7C103.555 193.449 117.366 190.883 131.109 193.853C138.299 195.4 144.127 199.316 147.09 204.593C151.473 212.399 149.553 221.826 147.862 230.153C147.479 232.031 147.122 233.809 146.843 235.528C145.78 242.007 144.934 249.575 146.769 256.554C148.374 262.644 152.26 267.616 158.024 270.929C163.336 273.977 169.891 275.412 176.499 274.963C192.439 273.9 208.013 267.861 220.353 257.945C221.183 257.282 222.379 257.42 223.039 258.237C223.703 259.066 223.564 260.26 222.746 260.92C213.745 268.153 203.123 273.409 191.881 276.323Z" fill="#0085E5"/>
<path d="M648.694 124.477C641.244 125.184 634.072 124.778 625.42 123.135C622.025 122.501 618.879 121.248 616.299 119.534C613.254 117.504 611.122 114.923 609.917 111.85C607.193 104.852 609.684 98.187 612.308 91.1192C615.271 83.1732 616.609 75.9777 616.281 69.7279C616.087 66.1301 615.356 62.7504 614.073 59.6849C612.696 56.3543 610.633 53.2803 607.961 50.5488C600.646 43.081 589.023 38.982 576.051 39.2893C563.799 39.5809 550.661 42.9079 539.062 48.6672C528.292 54.014 518.292 61.0579 508.631 67.8823C507.696 68.5462 506.757 69.1978 505.822 69.8617C502.533 72.1763 499.242 74.6888 496.046 77.1107C489.705 81.9419 483.142 86.9358 476.071 90.8364L474.251 87.5283C481.082 83.769 487.534 78.8565 493.765 74.1067C496.979 71.6537 500.306 69.1316 503.651 66.7763C504.586 66.1124 505.525 65.4608 506.46 64.7969C516.248 57.9002 526.368 50.7594 537.393 45.2805C549.482 39.2756 563.192 35.8137 575.979 35.5018C590 35.1728 602.642 39.6925 610.687 47.8929C616.478 53.8065 619.641 61.0733 620.074 69.5085C620.429 76.3704 619.062 83.8631 615.875 92.4202C613.293 99.3454 611.265 104.797 613.458 110.458C614.366 112.791 616.03 114.783 618.404 116.367C620.555 117.798 623.226 118.844 626.125 119.396C634.414 120.962 641.267 121.358 648.331 120.686L648.694 124.477Z" fill="#0085E5"/>
<path d="M650.021 133.919C641.644 134.51 631.21 135.252 621.923 133.142C616.837 131.985 612.661 130.117 609.184 127.436C605.231 124.391 602.253 120.277 600.334 115.217C598.527 110.43 598.07 105.465 598.937 100.011C599.678 95.3415 601.239 91.091 602.743 86.974C604.21 82.9718 605.59 79.1899 606.082 75.4932C607.111 67.6665 605.424 60.5969 601.436 56.099C597.599 51.7729 591.845 49.8667 587.687 49.0348C576.2 46.7313 564.425 48.0454 551.681 53.048C541.892 56.8893 531.9 62.6931 519.309 71.8443C510.753 78.0527 502.141 84.4998 493.803 90.731C489.85 93.6916 485.775 96.7368 481.739 99.7322L479.454 96.6632C483.477 93.6711 487.552 90.6259 491.505 87.6653C499.852 81.4185 508.477 74.9682 517.054 68.7411C529.925 59.3987 540.17 53.4505 550.27 49.4888C556.588 47.0081 562.82 45.3662 568.797 44.6202C575.448 43.7786 582.058 44.0011 588.429 45.2864C593.157 46.2339 599.753 48.4356 604.287 53.5688C609.018 58.9011 611.047 67.081 609.865 76.0007C609.324 80.1183 607.863 84.0927 606.329 88.2965C604.886 92.2398 603.397 96.3134 602.706 100.615C601.954 105.393 602.34 109.731 603.901 113.87C607.038 122.158 613.206 127.236 622.764 129.421C631.494 131.412 641.606 130.7 649.735 130.121L650.021 133.919Z" fill="#0085E5"/>
<path d="M315.049 119.237C315.011 119.247 314.974 119.256 314.925 119.269C313.884 119.473 312.887 118.783 312.687 117.755L305.896 82.507C305.692 81.4667 306.371 80.4741 307.413 80.27C308.454 80.0659 309.45 80.7559 309.651 81.7839L316.441 117.032C316.645 118.02 316.025 118.984 315.049 119.237Z" fill="#EFC42C"/>
<path d="M400.034 253.406C399.317 253.592 398.544 253.358 398.056 252.747L376.902 226.069C376.239 225.24 376.39 224.042 377.22 223.379C378.053 222.728 379.249 222.866 379.912 223.695L401.067 250.373C401.73 251.202 401.579 252.4 400.749 253.063C400.527 253.226 400.281 253.342 400.034 253.406Z" fill="#EFC42C"/>
<path d="M290.969 133.25C290.425 133.391 289.833 133.294 289.344 132.933L263.212 113.499C262.362 112.863 262.184 111.671 262.821 110.821C263.458 109.971 264.651 109.794 265.501 110.429L291.634 129.864C292.484 130.5 292.661 131.692 292.024 132.541C291.749 132.903 291.376 133.144 290.969 133.25Z" fill="#EFC42C"/>
<path d="M424.573 208.719C424.289 208.793 423.977 208.808 423.667 208.731L395.055 202.213C394.02 201.981 393.383 200.948 393.619 199.925C393.851 198.89 394.886 198.253 395.909 198.489L424.52 205.006C425.556 205.238 426.193 206.271 425.957 207.294C425.799 208.006 425.24 208.546 424.573 208.719Z" fill="#EFC42C"/>
<path d="M359.28 270.332C359.255 270.339 359.23 270.345 359.193 270.355C358.155 270.571 357.141 269.912 356.928 268.888L350.543 238.868C350.327 237.831 350.987 236.817 352.013 236.604C353.051 236.387 354.066 237.046 354.279 238.071L360.663 268.09C360.882 269.087 360.268 270.076 359.28 270.332Z" fill="#EFC42C"/>
<path d="M316.958 271.294C316.612 271.384 316.241 271.374 315.881 271.257C314.872 270.926 314.331 269.855 314.65 268.85L323.648 241.309C323.98 240.301 325.052 239.76 326.058 240.079C327.067 240.41 327.608 241.481 327.288 242.486L318.291 270.026C318.092 270.684 317.563 271.137 316.958 271.294Z" fill="#EFC42C"/>
<path d="M349.809 118.655C349.364 118.77 348.878 118.725 348.436 118.497C347.504 118.001 347.138 116.845 347.635 115.913L360.978 90.5912C361.475 89.6591 362.632 89.2931 363.565 89.7889C364.498 90.2846 364.863 91.441 364.367 92.3731L351.023 117.695C350.755 118.186 350.315 118.524 349.809 118.655Z" fill="#EFC42C"/>
<path d="M274.285 158.911C274.075 158.965 273.843 158.986 273.614 158.966L243.163 155.928C242.107 155.82 241.35 154.884 241.446 153.832C241.555 152.776 242.492 152.02 243.546 152.115L273.997 155.153C275.053 155.261 275.81 156.197 275.714 157.25C275.625 158.076 275.039 158.715 274.285 158.911Z" fill="#EFC42C"/>
</svg>
