<?xml version="1.0" encoding="UTF-8" standalone="no"?>
<!DOCTYPE svg PUBLIC "-//W3C//DTD SVG 1.1//EN" "http://www.w3.org/Graphics/SVG/1.1/DTD/svg11.dtd">
<!-- Created with Vectornator (http://vectornator.io/) -->
<svg height="100%" stroke-miterlimit="10" style="fill-rule:nonzero;clip-rule:evenodd;stroke-linecap:round;stroke-linejoin:round;" version="1.1" viewBox="0 0 512 512" width="100%" xml:space="preserve" xmlns="http://www.w3.org/2000/svg" xmlns:vectornator="http://vectornator.io" xmlns:xlink="http://www.w3.org/1999/xlink">
<defs/>
<clipPath id="ArtboardFrame">
<rect height="512" width="512" x="0" y="0"/>
</clipPath>
<g clip-path="url(#ArtboardFrame)" id="Calque-1" vectornator:layerName="Calque 1">
<g opacity="1" vectornator:layerName="g">
<path d="M156.971 278.75C163.154 274.735 170.331 272.213 177.934 271.608" fill="none" opacity="1" stroke="#00dc51" stroke-linecap="round" stroke-linejoin="round" stroke-width="29" vectornator:layerName="path"/>
<path d="M177.934 271.608C181.292 271.341 184.732 271.448 188.206 271.965C212.875 275.638 229.896 298.615 226.222 323.284C222.55 347.953 199.573 364.973 174.905 361.3" fill="none" opacity="1" stroke="#00dc51" stroke-linecap="round" stroke-linejoin="round" stroke-width="29" vectornator:layerName="path"/>
<path d="M60.9958 230.563C42.3927 227.793 28.1391 214.046 23.8295 196.873" fill="none" opacity="1" stroke="#00dc51" stroke-linecap="round" stroke-linejoin="round" stroke-width="29" vectornator:layerName="path"/>
<path d="M82.7503 236.816C86.4235 212.146 109.4 195.126 134.069 198.799C158.738 202.472 175.758 225.449 172.085 250.118C168.411 274.786 145.436 291.807 120.766 288.134C96.0976 284.46 79.077 261.485 82.7503 236.816Z" fill="none" opacity="1" stroke="#00dc51" stroke-linecap="round" stroke-linejoin="round" stroke-width="29" vectornator:layerName="path"/>
<path d="M98.1454 219.203C88.4543 228.066 74.9978 232.647 60.9958 230.563" fill="none" opacity="1" stroke="#00dc51" stroke-linecap="round" stroke-linejoin="round" stroke-width="29" vectornator:layerName="path"/>
<path d="M52.5291 248.028C52.2588 243.029 52.4853 237.929 53.2515 232.783C59.3801 191.624 97.7153 163.224 138.876 169.354C180.035 175.482 208.434 213.817 202.305 254.978C196.177 296.137 157.841 324.536 116.681 318.408C80.6662 313.044 54.4218 283.024 52.5291 248.028" fill="none" opacity="1" stroke="#040404" stroke-linecap="round" stroke-linejoin="round" stroke-width="29" vectornator:layerName="path"/>
<path d="M23.8295 196.873C22.4241 191.274 22.0761 185.311 22.9793 179.245C26.6525 154.576 49.6285 137.555 74.2977 141.228C98.9667 144.902 115.987 167.877 112.314 192.547C110.726 203.214 105.528 212.45 98.1454 219.203" fill="none" opacity="1" stroke="#00dc51" stroke-linecap="round" stroke-linejoin="round" stroke-width="29" vectornator:layerName="path"/>
<path d="M174.905 361.3C150.236 357.627 133.215 334.651 136.888 309.981C138.872 296.653 146.493 285.556 156.971 278.75" fill="none" opacity="1" stroke="#00dc51" stroke-linecap="round" stroke-linejoin="round" stroke-width="29" vectornator:layerName="path"/>
</g>
<g opacity="1" vectornator:layerName="g">
<path d="M235.856 193.666L273.184 193.666L273.184 204.165L251.02 204.165L251.02 212.697L269.951 212.697L269.951 222.561L251.02 222.561L251.02 242.525L235.856 242.525L235.856 193.666Z" fill="#040404" fill-rule="nonzero" opacity="1" stroke="none" vectornator:layerName="path"/>
<path d="M312.08 193.666L327.145 193.666L327.145 222.795C327.145 225.684 326.695 228.411 325.795 230.977C324.895 233.544 323.484 235.787 321.562 237.709C319.64 239.631 317.624 240.981 315.513 241.759C312.58 242.848 309.058 243.392 304.949 243.392C302.571 243.392 299.976 243.226 297.166 242.892C294.356 242.559 292.006 241.897 290.117 240.909C288.228 239.92 286.501 238.515 284.934 236.693C283.368 234.871 282.296 232.994 281.718 231.06C280.786 227.95 280.319 225.194 280.319 222.795L280.319 193.666L295.383 193.666L295.383 223.495C295.383 226.161 296.122 228.244 297.599 229.744C299.077 231.244 301.126 231.994 303.748 231.994C306.348 231.994 308.387 231.255 309.864 229.777C311.342 228.299 312.08 226.205 312.08 223.495L312.08 193.666Z" fill="#040404" fill-rule="nonzero" opacity="1" stroke="none" vectornator:layerName="path"/>
<path d="M333.479 226.361L347.844 225.461C348.155 227.794 348.789 229.572 349.744 230.794C351.299 232.771 353.521 233.76 356.41 233.76C358.565 233.76 360.226 233.254 361.393 232.243C362.558 231.232 363.141 230.061 363.141 228.727C363.141 227.461 362.586 226.328 361.475 225.328C360.364 224.328 357.787 223.384 353.743 222.495C347.122 221.006 342.401 219.029 339.579 216.563C336.735 214.096 335.313 210.952 335.313 207.131C335.313 204.621 336.04 202.248 337.496 200.015C338.951 197.782 341.139 196.027 344.062 194.749C346.984 193.472 350.988 192.833 356.076 192.833C362.32 192.833 367.08 193.994 370.357 196.315C373.634 198.637 375.584 202.332 376.207 207.398L361.976 208.231C361.598 206.031 360.803 204.431 359.592 203.431C358.381 202.432 356.71 201.932 354.577 201.932C352.822 201.932 351.499 202.304 350.61 203.048C349.722 203.792 349.278 204.698 349.278 205.765C349.278 206.542 349.644 207.242 350.377 207.864C351.088 208.509 352.777 209.109 355.443 209.664C362.042 211.086 366.769 212.525 369.625 213.98C372.479 215.435 374.557 217.241 375.856 219.396C377.157 221.55 377.806 223.962 377.806 226.628C377.806 229.761 376.939 232.649 375.207 235.293C373.474 237.937 371.052 239.942 367.941 241.309C364.83 242.675 360.909 243.359 356.176 243.359C347.867 243.359 342.112 241.759 338.912 238.56C335.712 235.36 333.902 231.294 333.479 226.361Z" fill="#040404" fill-rule="nonzero" opacity="1" stroke="none" vectornator:layerName="path"/>
<path d="M384.975 193.666L400.106 193.666L400.106 242.525L384.975 242.525L384.975 193.666Z" fill="#040404" fill-rule="nonzero" opacity="1" stroke="none" vectornator:layerName="path"/>
<path d="M408.007 218.129C408.007 210.153 410.229 203.943 414.673 199.499C419.116 195.055 425.304 192.833 433.236 192.833C441.368 192.833 447.634 195.016 452.033 199.382C456.432 203.748 458.633 209.864 458.633 217.729C458.633 223.439 457.671 228.122 455.749 231.777C453.827 235.432 451.05 238.276 447.417 240.309C443.785 242.342 439.257 243.359 433.837 243.359C428.326 243.359 423.765 242.481 420.155 240.726C416.544 238.971 413.617 236.193 411.373 232.394C409.129 228.594 408.007 223.839 408.007 218.129ZM423.105 218.196C423.105 223.128 424.021 226.672 425.854 228.827C427.687 230.983 430.181 232.06 433.336 232.06C436.58 232.06 439.091 231.005 440.868 228.894C442.646 226.783 443.535 222.995 443.535 217.529C443.535 212.93 442.607 209.569 440.752 207.447C438.897 205.325 436.38 204.265 433.203 204.265C430.159 204.265 427.715 205.342 425.871 207.498C424.027 209.653 423.105 213.218 423.105 218.196Z" fill="#040404" fill-rule="nonzero" opacity="1" stroke="none" vectornator:layerName="path"/>
<path d="M465.834 193.666L479.932 193.666L498.329 220.695L498.329 193.666L512.56 193.666L512.56 242.525L498.329 242.525L480.032 215.696L480.032 242.525L465.834 242.525L465.834 193.666Z" fill="#040404" fill-rule="nonzero" opacity="1" stroke="none" vectornator:layerName="path"/>
</g>
<g opacity="1" vectornator:layerName="g">
<path d="M228.419 252.214L274.313 252.214L274.313 264.28L258.915 264.28L258.915 301.074L243.818 301.074L243.818 264.28L228.419 264.28L228.419 252.214Z" fill="#040404" fill-rule="nonzero" opacity="1" stroke="none" vectornator:layerName="path"/>
<path d="M278.02 252.214L318.481 252.214L318.481 262.646L293.151 262.646L293.151 270.412L316.647 270.412L316.647 280.377L293.151 280.377L293.151 290.008L319.213 290.008L319.213 301.074L278.02 301.074L278.02 252.214Z" fill="#040404" fill-rule="nonzero" opacity="1" stroke="none" vectornator:layerName="path"/>
<path d="M356.782 281.111L370.014 285.109C369.125 288.82 367.725 291.92 365.815 294.408C363.904 296.897 361.532 298.774 358.699 300.041C355.866 301.307 352.261 301.94 347.884 301.94C342.574 301.94 338.235 301.168 334.869 299.624C331.503 298.08 328.598 295.364 326.154 291.475C323.71 287.587 322.487 282.61 322.487 276.544C322.487 268.457 324.637 262.241 328.937 257.898C333.236 253.553 339.318 251.382 347.183 251.382C353.339 251.382 358.176 252.625 361.699 255.114C365.22 257.603 367.837 261.424 369.547 266.579L356.216 269.545C355.749 268.057 355.261 266.967 354.75 266.279C353.905 265.124 352.872 264.235 351.65 263.613C350.428 262.991 349.061 262.679 347.55 262.679C344.129 262.679 341.507 264.057 339.685 266.813C338.307 268.856 337.619 272.068 337.619 276.444C337.619 281.866 338.44 285.582 340.085 287.593C341.729 289.603 344.04 290.609 347.018 290.609C349.906 290.609 352.089 289.798 353.567 288.176C355.043 286.554 356.116 284.198 356.782 281.111Z" fill="#040404" fill-rule="nonzero" opacity="1" stroke="none" vectornator:layerName="path"/>
<path d="M374.321 252.214L389.418 252.214L389.418 269.312L405.916 269.312L405.916 252.214L421.081 252.214L421.081 301.074L405.916 301.074L405.916 281.311L389.418 281.311L389.418 301.074L374.321 301.074L374.321 252.214Z" fill="#040404" fill-rule="nonzero" opacity="1" stroke="none" vectornator:layerName="path"/>
<path d="M480.22 281.111L493.452 285.109C492.563 288.82 491.163 291.92 489.252 294.408C487.342 296.897 484.969 298.774 482.137 300.041C479.304 301.307 475.698 301.94 471.322 301.94C466.011 301.94 461.674 301.168 458.307 299.624C454.941 298.08 452.036 295.364 449.592 291.475C447.148 287.587 445.926 282.61 445.926 276.544C445.926 268.457 448.076 262.241 452.375 257.898C456.674 253.553 462.757 251.382 470.622 251.382C476.776 251.382 481.615 252.625 485.136 255.114C488.658 257.603 491.274 261.424 492.985 266.579L479.654 269.545C479.187 268.057 478.698 266.967 478.187 266.279C477.343 265.124 476.31 264.235 475.088 263.613C473.866 262.991 472.5 262.679 470.989 262.679C467.566 262.679 464.945 264.057 463.123 266.813C461.746 268.856 461.056 272.068 461.056 276.444C461.056 281.866 461.879 285.582 463.523 287.593C465.167 289.603 467.478 290.609 470.455 290.609C473.344 290.609 475.526 289.798 477.004 288.176C478.482 286.554 479.554 284.198 480.22 281.111Z" fill="#040404" fill-rule="nonzero" opacity="1" stroke="none" vectornator:layerName="path"/>
<path d="M498.292 252.214L513.424 252.214L513.424 301.074L498.292 301.074L498.292 252.214Z" fill="#040404" fill-rule="nonzero" opacity="1" stroke="none" vectornator:layerName="path"/>
</g>
<path d="M423.814 301.061C423.879 292.696 429.966 285.962 437.41 286.02C444.853 286.077 450.836 292.904 450.771 301.269" fill="#040404" fill-rule="nonzero" opacity="1" stroke="none" vectornator:layerName="path"/>
</g>
</svg>
